<svg width="183" height="32" viewBox="0 0 183 32" fill="none" id="svg1564094842_9581">
<g clip-path="url(#svg1564094842_9581_clip0_563_13615)">
<path d="M22.4405 0C22.5299 0 22.6198 0 22.7092 0C22.8417 0.0206106 22.9742 0.0370991 23.1062 0.0618318C24.1476 0.257338 25.0014 1.1118 25.1879 2.15115C25.2239 2.35314 25.2381 2.55866 25.2583 2.763C25.2926 3.11396 25.3233 3.46552 25.3553 3.81708C25.3854 4.15156 25.415 4.48605 25.4452 4.81993C25.4766 5.16795 25.5092 5.51599 25.5405 5.86342C25.5713 6.20143 25.6009 6.53886 25.6311 6.87687C25.6624 7.2249 25.6949 7.57291 25.7263 7.92038C25.7571 8.25834 25.7867 8.59577 25.8168 8.93381C25.8482 9.28181 25.8807 9.62989 25.9121 9.97728C25.9428 10.3153 25.9724 10.6528 26.0026 10.9907C26.034 11.3352 26.0659 11.6797 26.0973 12.0242C26.128 12.3652 26.1576 12.7067 26.1884 13.0477C26.2198 13.3922 26.2517 13.7367 26.2831 14.0811C26.3068 14.3438 26.3293 14.6064 26.3529 14.8691C26.3843 15.2136 26.4186 15.558 26.4464 15.9026C26.4523 15.9744 26.476 16.0192 26.5358 16.0598C27.1221 16.4567 27.7062 16.8571 28.2908 17.2564C29.0824 17.7975 29.8735 18.3387 30.6653 18.8793V19.0029C30.6588 19.0424 30.6487 19.0819 30.6457 19.1219C30.6215 19.4152 30.6007 19.7091 30.5753 20.0023C30.5446 20.3568 30.5108 20.7113 30.4789 21.0658C30.4558 21.3214 30.4339 21.5775 30.4103 21.8331C30.3783 22.1876 30.3452 22.5421 30.3132 22.8966C30.2836 23.2275 30.2547 23.5579 30.2244 23.8888C30.1925 24.2398 30.1594 24.5908 30.128 24.9423C30.0978 25.2762 30.0694 25.6107 30.0386 25.9446C30.0073 26.2926 29.9742 26.6401 29.9428 26.9875C29.912 27.3249 29.8836 27.6629 29.8535 28.0004C29.8138 28.4402 29.7754 28.8802 29.7327 29.3195C29.7144 29.5103 29.7002 29.7028 29.66 29.8895C29.4198 31.0048 28.5641 31.7951 27.4263 31.9635C27.3351 31.9771 27.244 31.9882 27.1523 32H26.9458C26.9127 31.9941 26.8796 31.987 26.8464 31.9823C26.7547 31.97 26.6612 31.9635 26.5706 31.9464C25.9292 31.8257 25.405 31.5083 24.9926 31.0066C23.9003 29.678 22.8086 28.349 21.7163 27.0205C20.3601 25.371 19.0045 23.7216 17.6483 22.0722C17.6293 22.0492 17.6087 22.0269 17.5832 21.9986C17.5566 22.028 17.5335 22.0528 17.5128 22.078C17.0051 22.6958 16.4974 23.3141 15.9897 23.9325C14.4601 25.7944 12.9306 27.6571 11.401 29.5191C10.9827 30.0285 10.5685 30.5414 10.1443 31.0454C9.71113 31.5595 9.1561 31.8657 8.48749 31.9629C8.39283 31.9765 8.29809 31.9876 8.20342 32H8.03835C8.00821 31.9947 7.97862 31.9876 7.94841 31.9841C7.83246 31.9688 7.71468 31.9629 7.60108 31.9388C6.66855 31.7391 6.01412 31.2021 5.64194 30.327C5.5017 29.9972 5.46442 29.6469 5.43543 29.2947C5.40703 28.9502 5.37567 28.6057 5.34431 28.2612C5.30703 27.8485 5.26739 27.4362 5.23011 27.0234C5.19224 26.6042 5.15674 26.1843 5.11887 25.765C5.06739 25.1991 5.01354 24.6332 4.96266 24.0667C4.91769 23.5685 4.87567 23.0703 4.8307 22.5728C4.77923 22.0032 4.72479 21.4338 4.67331 20.8644C4.62834 20.3662 4.58633 19.868 4.54136 19.3704C4.48988 18.8045 4.43663 18.2386 4.38455 17.6721C4.33544 17.1368 4.28633 16.6015 4.24137 16.0657C4.23663 16.0074 4.21415 15.9738 4.16859 15.9432C3.85853 15.7335 3.54966 15.5215 3.24019 15.3101C2.19642 14.597 1.15205 13.8833 0.107691 13.1708C0.0757387 13.149 0.0360942 13.1372 0 13.1207C0 13.0795 0 13.0383 0 12.9971C0.0136093 12.9305 0.0331357 12.8645 0.0396445 12.7974C0.0656796 12.5348 0.0863891 12.2722 0.11065 12.0095C0.142602 11.658 0.175737 11.3069 0.207689 10.956C0.237866 10.6251 0.26686 10.2941 0.297037 9.96377C0.32899 9.61275 0.361534 9.26121 0.393486 8.91026C0.416563 8.65472 0.439047 8.39849 0.462124 8.14294C0.494076 7.792 0.527212 7.44042 0.559165 7.08946C0.589342 6.75851 0.618335 6.42756 0.647921 6.0972C0.679873 5.74623 0.713008 5.39467 0.744369 5.04371C0.774542 4.71276 0.803537 4.38181 0.833714 4.05146C0.865669 3.69695 0.897623 3.34186 0.931347 2.98736C0.955612 2.73179 0.972173 2.47503 1.01182 2.22123C1.17868 1.13947 2.03015 0.267937 3.11416 0.0600651C3.23901 0.0359213 3.36504 0.0200217 3.49049 0C3.58694 0 3.68338 0 3.77983 0C3.89167 0.0170774 4.00468 0.0306214 4.11533 0.0518209C4.76325 0.176073 5.29046 0.499365 5.70762 1.00697C6.86204 2.41321 8.01821 3.81885 9.17327 5.22449C10.4549 6.78442 11.7366 8.34377 13.0188 9.9037C13.0442 9.93487 13.072 9.96491 13.1022 9.9997C13.1276 9.97079 13.1483 9.94906 13.1673 9.92604C15.4329 7.17072 17.6986 4.41537 19.9649 1.66063C20.1678 1.41389 20.3678 1.16538 20.5772 0.92394C20.9754 0.465211 21.4742 0.173718 22.0743 0.0582985C22.1956 0.0347435 22.3181 0.0194328 22.44 0H22.4405ZM4.2603 15.9974C4.29166 16.0197 4.32184 16.0421 4.35261 16.0633C5.84193 17.082 7.33185 18.1008 8.82115 19.1195C8.88927 19.1661 8.97921 19.2008 9.01643 19.2656C9.05549 19.3339 9.04603 19.4311 9.05373 19.5158C9.10698 20.0783 9.15961 20.6412 9.21057 21.2042C9.2555 21.6988 9.29814 22.1935 9.34246 22.6882C9.39631 23.2888 9.45139 23.8888 9.50639 24.4895C9.51287 24.5614 9.52294 24.6332 9.53362 24.7221C9.56558 24.6856 9.58389 24.6662 9.60105 24.645C11.5738 22.2442 13.5448 19.8421 15.5211 17.4436C16.1028 16.7376 16.8613 16.4113 17.7773 16.472C18.5305 16.5214 19.1524 16.8465 19.6311 17.4248C20.5991 18.5937 21.5594 19.7685 22.5228 20.941C23.5411 22.1799 24.5588 23.4183 25.5772 24.6574C25.5925 24.6756 25.6115 24.6909 25.6393 24.718C25.905 21.7972 26.1689 18.8952 26.4328 15.9956C26.3902 15.9661 26.3564 15.9426 26.3227 15.9196C25.6618 15.4674 25.0008 15.0151 24.3399 14.5629C23.4719 13.9693 22.6044 13.3745 21.7347 12.7827C21.6742 12.7414 21.6447 12.6967 21.6405 12.6266C21.634 12.5206 21.6228 12.4152 21.6133 12.3092C21.5832 11.9712 21.5536 11.6338 21.5234 11.2958C21.4909 10.9377 21.4577 10.5797 21.4257 10.2211C21.4027 9.96845 21.3808 9.71585 21.3577 9.46377C21.3258 9.10928 21.2926 8.75419 21.2606 8.3997C21.2305 8.06875 21.2015 7.73781 21.1713 7.40686C21.1677 7.36917 21.1595 7.33207 21.1518 7.28025C21.1228 7.31441 21.1068 7.33207 21.0921 7.35091C20.2003 8.43562 19.3086 9.5203 18.4169 10.6056C17.3311 11.9265 16.2513 13.2526 15.1578 14.5669C14.591 15.2489 13.8495 15.574 12.9572 15.5328C12.2815 15.5015 11.7028 15.2371 11.2277 14.7613C11.049 14.5817 10.8927 14.3797 10.7312 14.1836C8.86738 11.9152 7.00464 9.64634 5.14194 7.37741C5.11887 7.34915 5.09343 7.32265 5.05259 7.27672C4.78692 10.1981 4.52301 13.096 4.25912 15.9986L4.2603 15.9974Z" fill="white"></path>
<path d="M55.9355 9.54898C59.0004 9.54898 61.2033 11.302 61.2033 15.1872V22.4839H57.4679V15.7558C57.4679 13.6947 56.5341 12.7471 55.0256 12.7471C53.3495 12.7471 52.1762 13.8132 52.1762 16.0875V22.4839H48.4409V15.7558C48.4409 13.6947 47.555 12.7471 45.9985 12.7471C44.3464 12.7471 43.1731 13.8132 43.1731 16.0875V22.4839H39.4377V9.73849H43.0054V11.2072C43.9632 10.1175 45.3999 9.54898 47.0521 9.54898C48.8479 9.54898 50.3804 10.236 51.2903 11.6337C52.3199 10.3307 53.996 9.54898 55.9355 9.54898ZM70.8214 22.6734C66.7269 22.6734 63.7338 19.949 63.7338 16.1112C63.7338 12.2734 66.7269 9.54898 70.8214 9.54898C74.9159 9.54898 77.8853 12.2734 77.8853 16.1112C77.8853 19.949 74.9159 22.6734 70.8214 22.6734ZM70.8214 19.641C72.689 19.641 74.1017 18.3143 74.1017 16.1112C74.1017 13.9079 72.689 12.5813 70.8214 12.5813C68.9537 12.5813 67.517 13.9079 67.517 16.1112C67.517 18.3143 68.9537 19.641 70.8214 19.641ZM83.9497 11.4205C84.8597 10.1886 86.3922 9.54898 88.3794 9.54898V12.9604C88.0681 12.9367 87.8286 12.913 87.541 12.913C85.4822 12.913 84.1175 14.0264 84.1175 16.4665V22.4839H80.382V9.73849H83.9497V11.4205ZM98.2152 9.54898C101.83 9.54898 104.632 12.1075 104.632 16.1112C104.632 20.1148 101.83 22.6734 98.2152 22.6734C96.6102 22.6734 95.2936 22.1758 94.3355 21.1335V27.0797H90.6007V9.73849H94.1684V11.2072C95.1021 10.0938 96.4912 9.54898 98.2152 9.54898ZM97.5683 19.641C99.4357 19.641 100.848 18.3143 100.848 16.1112C100.848 13.9079 99.4357 12.5813 97.5683 12.5813C95.7009 12.5813 94.2882 13.9079 94.2882 16.1112C94.2882 18.3143 95.7009 19.641 97.5683 19.641ZM114.962 9.54898C118.003 9.54898 120.302 11.302 120.302 15.1872V22.4839H116.566V15.7558C116.566 13.6947 115.609 12.7471 113.957 12.7471C112.161 12.7471 110.867 13.8369 110.867 16.1822V22.4839H107.132V4.90566H110.867V11.0651C111.873 10.0701 113.31 9.54898 114.962 9.54898ZM140.838 9.73849H144.142L139.473 22.4839H135.881L132.984 14.5712L129.99 22.4839H126.399L121.753 9.73849H125.274L128.314 18.3617L131.476 9.73849H134.636L137.701 18.3617L140.838 9.73849ZM150.654 9.54898C154.581 9.54898 156.855 11.3494 156.855 15.2109V22.4839H153.359V20.8966C152.665 22.0574 151.324 22.6734 149.432 22.6734C146.415 22.6734 144.62 21.015 144.62 18.8118C144.62 16.5613 146.224 14.9977 150.151 14.9977H153.12C153.12 13.4105 152.162 12.4866 150.151 12.4866C148.786 12.4866 147.373 12.9367 146.44 13.671L145.099 11.0888C146.511 10.0938 148.595 9.54898 150.654 9.54898ZM150.367 20.1859C151.612 20.1859 152.689 19.6173 153.12 18.4565V17.1535H150.558C148.81 17.1535 148.259 17.7931 148.259 18.646C148.259 19.5699 149.049 20.1859 150.367 20.1859ZM163.804 11.4205C164.714 10.1886 166.246 9.54898 168.233 9.54898V12.9604C167.922 12.9367 167.683 12.913 167.395 12.913C165.336 12.913 163.972 14.0264 163.972 16.4665V22.4839H160.236V9.73849H163.804V11.4205ZM182.957 16.1585C182.957 16.4428 182.909 16.8455 182.885 17.1535H173.139C173.498 18.7408 174.863 19.7121 176.827 19.7121C178.191 19.7121 179.173 19.3094 180.059 18.4802L182.047 20.6123C180.849 21.9626 179.053 22.6734 176.73 22.6734C172.277 22.6734 169.38 19.9016 169.38 16.1112C169.38 12.297 172.325 9.54898 176.252 9.54898C180.035 9.54898 182.957 12.0601 182.957 16.1585ZM176.276 12.3444C174.576 12.3444 173.355 13.3631 173.091 14.9977H179.437C179.173 13.3868 177.952 12.3444 176.276 12.3444Z" fill="white"></path>
</g>
</svg>